<svg width="12" height="12" viewBox="0 0 12 12" fill="none" xmlns="http://www.w3.org/2000/svg">
<path opacity="0.7" d="M11.5918 1.59961L10.7754 0.783203C10.5176 0.525391 10.1523 0.375 9.80859 0.375C9.46484 0.375 9.09961 0.525391 8.8418 0.783203L1.25781 8.36719L1 10.8164C0.957031 11.1172 1.19336 11.375 1.49414 11.375C1.51562 11.375 1.53711 11.375 1.55859 11.375L4.00781 11.1172L11.5918 3.5332C12.1289 2.99609 12.1289 2.13672 11.5918 1.59961ZM3.70703 10.4512L1.70898 10.666L1.92383 8.66797L7.5957 2.99609L9.37891 4.7793L3.70703 10.4512ZM11.0977 3.06055L9.85156 4.30664L8.06836 2.52344L9.31445 1.27734C9.44336 1.14844 9.61523 1.0625 9.80859 1.0625C10.002 1.0625 10.1738 1.14844 10.3027 1.27734L11.0977 2.07227C11.377 2.35156 11.377 2.78125 11.0977 3.06055Z" fill="#081D26"/>
</svg>
